<svg width="20" height="20" viewBox="0 0 20 20" fill="none" xmlns="http://www.w3.org/2000/svg">
<mask id="path-1-inside-1_143801_857" fill="white">
<path fill-rule="evenodd" clip-rule="evenodd" d="M10 19C14.9705 19 19 14.9705 19 10C19 8.4028 18.5839 6.90277 17.8543 5.60237C17.8502 5.60763 17.846 5.61284 17.8417 5.61798L9.63663 15.5L4.67524 10.3391C4.56383 10.215 4.50101 10.0486 4.50001 9.87502C4.49902 9.70144 4.55994 9.53422 4.66991 9.40865C4.77989 9.28307 4.93032 9.20895 5.08949 9.20193C5.24865 9.19491 5.40409 9.25553 5.52302 9.37101L9.57151 13.5819L16.9307 4.72023C16.9469 4.70074 16.9634 4.67967 16.9805 4.65801C17.0318 4.59286 17.0873 4.52235 17.1487 4.47326L17.8068 3.75C19.1791 5.46198 20 7.6351 20 10C20 15.523 15.523 20 10 20C4.477 20 0 15.523 0 10C0 4.477 4.477 0 10 0C12.2517 0 14.3296 0.744172 16.0011 2L15.3336 2.75C13.841 1.65004 11.9964 1 10 1C5.0295 1 1 5.0295 1 10C1 14.9705 5.0295 19 10 19Z"/>
</mask>
<path fill-rule="evenodd" clip-rule="evenodd" d="M10 19C14.9705 19 19 14.9705 19 10C19 8.4028 18.5839 6.90277 17.8543 5.60237C17.8502 5.60763 17.846 5.61284 17.8417 5.61798L9.63663 15.5L4.67524 10.3391C4.56383 10.215 4.50101 10.0486 4.50001 9.87502C4.49902 9.70144 4.55994 9.53422 4.66991 9.40865C4.77989 9.28307 4.93032 9.20895 5.08949 9.20193C5.24865 9.19491 5.40409 9.25553 5.52302 9.37101L9.57151 13.5819L16.9307 4.72023C16.9469 4.70074 16.9634 4.67967 16.9805 4.65801C17.0318 4.59286 17.0873 4.52235 17.1487 4.47326L17.8068 3.75C19.1791 5.46198 20 7.6351 20 10C20 15.523 15.523 20 10 20C4.477 20 0 15.523 0 10C0 4.477 4.477 0 10 0C12.2517 0 14.3296 0.744172 16.0011 2L15.3336 2.75C13.841 1.65004 11.9964 1 10 1C5.0295 1 1 5.0295 1 10C1 14.9705 5.0295 19 10 19Z" fill="#FF5656"/>
<path d="M17.8543 5.60237L19.5984 4.62369L18.1247 1.99714L16.2756 4.37447L17.8543 5.60237ZM17.8417 5.61798L19.3805 6.89561L19.3821 6.89364L17.8417 5.61798ZM9.63663 15.5L8.19482 16.886L9.74577 18.4993L11.1754 16.7776L9.63663 15.5ZM4.67524 10.3391L3.1871 11.6753L3.20984 11.7006L3.23343 11.7251L4.67524 10.3391ZM4.50001 9.87502L2.50004 9.88647L2.50004 9.88647L4.50001 9.87502ZM4.66991 9.40865L3.16534 8.09098L3.16533 8.09098L4.66991 9.40865ZM5.08949 9.20193L5.17762 11.2L5.17765 11.2L5.08949 9.20193ZM5.52302 9.37101L6.96477 7.98488L6.94093 7.96008L6.91625 7.93611L5.52302 9.37101ZM9.57151 13.5819L8.12976 14.9681L9.68058 16.5811L11.1101 14.8597L9.57151 13.5819ZM16.9307 4.72023L18.4693 5.99797L18.4693 5.99793L16.9307 4.72023ZM16.9805 4.65801L15.4093 3.42058L15.4092 3.42062L16.9805 4.65801ZM17.1487 4.47326L18.3977 6.03537L18.5214 5.93643L18.6281 5.81923L17.1487 4.47326ZM17.8068 3.75L19.3673 2.49908L17.903 0.672408L16.3275 2.40403L17.8068 3.75ZM16.0011 2L17.4951 3.32962L18.9398 1.70632L17.2025 0.401016L16.0011 2ZM15.3336 2.75L14.1472 4.36006L15.6153 5.44192L16.8277 4.07962L15.3336 2.75ZM17 10C17 13.8659 13.8659 17 10 17V21C16.0751 21 21 16.0751 21 10H17ZM16.1101 6.58106C16.6764 7.59029 17 8.75435 17 10H21C21 8.05125 20.4915 6.21524 19.5984 4.62369L16.1101 6.58106ZM16.2756 4.37447C16.2838 4.36394 16.2924 4.35321 16.3014 4.34232L19.3821 6.89364C19.3996 6.87246 19.4166 6.85132 19.4329 6.83027L16.2756 4.37447ZM16.303 4.34036L8.0979 14.2223L11.1754 16.7776L19.3805 6.8956L16.303 4.34036ZM11.0784 14.1139L6.11705 8.95298L3.23343 11.7251L8.19482 16.886L11.0784 14.1139ZM6.16337 9.00285C6.39329 9.25891 6.4983 9.56981 6.49998 9.86357L2.50004 9.88647C2.50371 10.5274 2.73437 11.1711 3.1871 11.6753L6.16337 9.00285ZM6.49998 9.86358C6.50166 10.1573 6.40028 10.4685 6.17449 10.7263L3.16533 8.09098C2.71959 8.59995 2.49638 9.24557 2.50004 9.88647L6.49998 9.86358ZM6.17449 10.7263C5.94418 10.9893 5.5922 11.1817 5.17762 11.2L5.00135 7.20387C4.26845 7.2362 3.61559 7.57685 3.16534 8.09098L6.17449 10.7263ZM5.17765 11.2C4.76192 11.2183 4.38802 11.0566 4.1298 10.8059L6.91625 7.93611C6.42017 7.45444 5.73538 7.17149 5.00132 7.20388L5.17765 11.2ZM4.08127 10.7571L8.12976 14.9681L11.0133 12.1958L6.96477 7.98488L4.08127 10.7571ZM11.1101 14.8597L18.4693 5.99797L15.392 3.44249L8.03289 12.3042L11.1101 14.8597ZM18.4693 5.99793C18.5051 5.95487 18.5381 5.91271 18.5518 5.8954L15.4092 3.42062C15.4048 3.42623 15.4015 3.43042 15.3984 3.43435C15.3954 3.43816 15.3933 3.44085 15.3917 3.44286C15.3882 3.44719 15.3888 3.44635 15.392 3.44253L18.4693 5.99793ZM18.5517 5.89544C18.5658 5.87752 18.5709 5.87116 18.5747 5.86649C18.5777 5.86273 18.5737 5.86787 18.5648 5.878C18.5559 5.88809 18.5382 5.90785 18.5126 5.93322C18.4872 5.95841 18.4488 5.99449 18.3977 6.03537L15.8998 2.91115C15.624 3.13165 15.4247 3.40104 15.4093 3.42058L18.5517 5.89544ZM16.3275 2.40403L15.6694 3.12728L18.6281 5.81923L19.2861 5.09597L16.3275 2.40403ZM22 10C22 7.1641 21.0138 4.5531 19.3673 2.49908L16.2463 5.00092C17.3445 6.37086 18 8.10609 18 10H22ZM10 22C16.6276 22 22 16.6276 22 10H18C18 14.4184 14.4184 18 10 18V22ZM-2 10C-2 16.6276 3.37243 22 10 22V18C5.58157 18 2 14.4184 2 10H-2ZM10 -2C3.37243 -2 -2 3.37243 -2 10H2C2 5.58157 5.58157 2 10 2V-2ZM17.2025 0.401016C15.1965 -1.10613 12.6997 -2 10 -2V2C11.8037 2 13.4628 2.59447 14.7997 3.59898L17.2025 0.401016ZM16.8277 4.07962L17.4951 3.32962L14.5071 0.670378L13.8396 1.42038L16.8277 4.07962ZM10 3C11.5551 3 12.9865 3.50478 14.1472 4.36006L16.5201 1.13994C14.6954 -0.204708 12.4376 -1 10 -1V3ZM3 10C3 6.13407 6.13407 3 10 3V-1C3.92493 -1 -1 3.92493 -1 10H3ZM10 17C6.13407 17 3 13.8659 3 10H-1C-1 16.0751 3.92493 21 10 21V17Z" fill="#FF5656" mask="url(#path-1-inside-1_143801_857)"/>
</svg>
