<svg width="118" height="118" viewBox="0 0 118 118" fill="none" xmlns="http://www.w3.org/2000/svg">
<path d="M58.6718 1.11008e-05C28.3827 -0.0184264 3.01269 22.9326 0 53.0668H40.9866V44.2131C40.9895 43.4346 41.3 42.6887 41.8506 42.1382C42.4011 41.5877 43.1469 41.2771 43.9255 41.2742H73.4255C75.0591 41.2742 76.3644 42.598 76.3644 44.2316V73.7131C76.3644 74.4926 76.0548 75.2401 75.5036 75.7913C74.9525 76.3424 74.205 76.6521 73.4255 76.6521H43.9255C43.146 76.6521 42.3985 76.3424 41.8474 75.7913C41.2962 75.2401 40.9866 74.4926 40.9866 73.7131V64.8595H0C3.26344 97.28 32.1697 120.902 64.5681 117.639C96.9886 114.394 120.611 85.4689 117.347 53.0705C114.331 22.9363 88.9609 0.0036986 58.6755 0.0036986L58.6718 1.11008e-05Z" fill="black"/>
</svg>
